<svg xmlns="http://www.w3.org/2000/svg" width="49" height="43" viewBox="0 0 49 43" fill="none">
  <path d="M27.8744 0.482181C27.7323 0.349198 27.5644 0.246388 27.3804 0.179622C27.1964 0.112855 26.9997 0.0834388 26.8018 0.093053C26.6038 0.102667 26.4083 0.151124 26.2266 0.235655C26.0448 0.320186 25.8802 0.439138 25.7423 0.585717C25.4638 0.881748 25.3107 1.27234 25.3167 1.67158C25.3196 1.86926 25.3616 2.06311 25.4401 2.24206C25.5186 2.42102 25.6321 2.58157 25.7742 2.71455L43.8599 19.6099L2.17675 19.7783C1.7771 19.7799 1.38912 19.9402 1.09815 20.224C0.807176 20.5077 0.637056 20.8916 0.62521 21.2913C0.613364 21.6909 0.760761 22.0736 1.03498 22.355C1.3092 22.6365 1.68777 22.7937 2.08742 22.7921L43.7616 22.6237L24.679 39.6602C24.5288 39.7941 24.4055 39.9555 24.3162 40.135C24.2268 40.3145 24.1731 40.5087 24.1581 40.7065C24.1432 40.9042 24.1673 41.1017 24.229 41.2876C24.2907 41.4734 24.3889 41.6441 24.518 41.7898C24.647 41.9355 24.8044 42.0534 24.9811 42.1367C25.1578 42.2201 25.3503 42.2672 25.5478 42.2755C25.7452 42.2838 25.9437 42.2531 26.1318 42.1851C26.32 42.1171 26.4941 42.0131 26.6443 41.8791L48.0514 22.7661C48.3205 22.5269 48.5314 22.2295 48.6669 21.898C48.8024 21.5665 48.8587 21.2103 48.8312 20.8585C48.7913 20.3077 48.5489 19.798 48.1504 19.4268L27.8744 0.482181Z" fill="white"/>
</svg>