<svg xmlns="http://www.w3.org/2000/svg" width="43" height="45" viewBox="0 0 43 45" fill="none">
  <path d="M41.5712 7.0969C41.5677 6.85473 41.5165 6.61554 41.4206 6.393C41.3247 6.17045 41.1859 5.96891 41.0122 5.79988C40.8385 5.63084 40.6332 5.49763 40.4082 5.40784C40.1831 5.31805 39.9427 5.27345 39.7005 5.27657C39.2115 5.28289 38.7453 5.48323 38.4045 5.83354C38.2358 6.00699 38.1029 6.21204 38.0135 6.43698C37.9241 6.66192 37.8799 6.90234 37.8834 7.14451L38.36 37.9436L3.39258 0.75092C3.05732 0.394327 2.59436 0.185301 2.10556 0.169824C1.61676 0.154347 1.14216 0.333691 0.786152 0.668399C0.430145 1.00311 0.221895 1.46576 0.207223 1.95459C0.192552 2.44341 0.37266 2.91836 0.707918 3.27495L35.6678 40.4596L4.97221 38.0867C4.73072 38.0679 4.48797 38.0968 4.25783 38.1719C4.02769 38.247 3.81466 38.3666 3.63091 38.5241C3.44715 38.6816 3.29627 38.8738 3.18688 39.0897C3.07748 39.3056 3.01171 39.541 2.99332 39.7825C2.97494 40.024 3.00431 40.2668 3.07973 40.4971C3.15517 40.7274 3.27518 40.9406 3.43294 41.1247C3.5907 41.3087 3.78311 41.4599 3.99919 41.5697C4.21526 41.6794 4.45075 41.7456 4.69224 41.7644L39.1282 44.4253C39.5601 44.4597 39.9938 44.3916 40.3941 44.2265C40.7944 44.0615 41.1499 43.8041 41.4316 43.4755C41.8753 42.9639 42.1143 42.3063 42.1028 41.6287L41.5712 7.0969Z" fill="white"/>
</svg>