<svg xmlns="http://www.w3.org/2000/svg" width="49" height="43" viewBox="0 0 49 43" fill="none">
  <path d="M21.588 1.10181C21.7301 0.968827 21.898 0.866017 22.082 0.799251C22.266 0.732484 22.4627 0.703068 22.6606 0.712682C22.8586 0.722296 23.0541 0.770752 23.2359 0.855284C23.4176 0.939815 23.5822 1.05877 23.7201 1.20535C23.9986 1.50138 24.1517 1.89197 24.1457 2.29121C24.1428 2.48889 24.1008 2.68274 24.0223 2.86169C23.9439 3.04065 23.8303 3.2012 23.6882 3.33418L5.60246 20.2295L47.2856 20.3979C47.6853 20.3996 48.0733 20.5599 48.3643 20.8436C48.6552 21.1273 48.8253 21.5113 48.8372 21.9109C48.849 22.3106 48.7016 22.6932 48.4274 22.9747C48.1532 23.2561 47.7746 23.4133 47.375 23.4117L5.70083 23.2433L24.7834 40.2798C24.9336 40.4138 25.0569 40.5751 25.1462 40.7546C25.2356 40.9342 25.2893 41.1284 25.3043 41.3261C25.3192 41.5239 25.2951 41.7213 25.2334 41.9072C25.1717 42.0931 25.0735 42.2637 24.9444 42.4094C24.8154 42.5551 24.658 42.673 24.4813 42.7563C24.3046 42.8397 24.1121 42.8869 23.9146 42.8952C23.7172 42.9034 23.5187 42.8727 23.3306 42.8047C23.1424 42.7367 22.9683 42.6327 22.8181 42.4988L1.41097 23.3857C1.14189 23.1465 0.93102 22.8491 0.795519 22.5176C0.660018 22.1861 0.603722 21.8299 0.631211 21.4781C0.671069 20.9274 0.913485 20.4176 1.31199 20.0465L21.588 1.10181Z" fill="white"/>
</svg>