<svg xmlns="http://www.w3.org/2000/svg" width="57" height="48" viewBox="0 0 57 48" fill="none">
  <g clip-path="url(#clip0_375_303)">
    <path d="M42.4122 21.0989C42.5002 21.0037 42.5684 20.8923 42.6128 20.771C42.6573 20.6496 42.6772 20.5208 42.6714 20.3919C42.6656 20.263 42.6342 20.1365 42.579 20.0196C42.5238 19.9027 42.4459 19.7977 42.3497 19.7106C42.1555 19.5347 41.8986 19.4424 41.6357 19.454C41.5055 19.4597 41.3777 19.4908 41.2596 19.5454C41.1415 19.6001 41.0355 19.6772 40.9475 19.7725L29.7715 31.8935L29.7715 4.71357C29.7715 4.45297 29.667 4.20305 29.4809 4.01878C29.2948 3.83452 29.0424 3.731 28.7792 3.731C28.516 3.731 28.2636 3.83452 28.0775 4.01878C27.8913 4.20305 27.7868 4.45297 27.7868 4.71357L27.7868 31.8876L16.6168 19.7725C16.5289 19.6771 16.423 19.5998 16.305 19.545C16.187 19.4902 16.0592 19.4589 15.929 19.453C15.7988 19.4471 15.6687 19.4666 15.5461 19.5104C15.4235 19.5543 15.3109 19.6216 15.2146 19.7086C15.1183 19.7956 15.0402 19.9005 14.9848 20.0173C14.9295 20.1341 14.8979 20.2606 14.8919 20.3896C14.8859 20.5185 14.9056 20.6473 14.9499 20.7687C14.9942 20.8901 15.0622 21.0016 15.1501 21.097L27.6816 34.6879C27.8384 34.8587 28.0338 34.9905 28.2517 35.0725C28.4697 35.1544 28.7041 35.1843 28.9359 35.1595C29.2988 35.1229 29.6352 34.955 29.8807 34.6879L42.4122 21.0989Z" fill="white"/>
    <mask id="path-2-inside-1_375_303" fill="white">
      <path d="M1 8.11764C1 5.29124 3.29125 3 6.11765 3H50.7143C53.5407 3 55.8319 5.29125 55.8319 8.11765V42.479C55.8319 45.3054 53.5407 47.5966 50.7143 47.5966H6.11765C3.29125 47.5966 1 45.3054 1 42.479V8.11764Z"/>
    </mask>
    <path d="M1 3H55.8319H1ZM55.8319 42.479C55.8319 46.3148 52.7224 49.4244 48.8866 49.4244H7.94538C4.10955 49.4244 1 46.3148 1 42.479C1 44.296 3.29125 45.7689 6.11765 45.7689H50.7143C53.5407 45.7689 55.8319 44.296 55.8319 42.479ZM1 47.5966V3V47.5966ZM55.8319 3V47.5966V3Z" fill="white" mask="url(#path-2-inside-1_375_303)"/>
  </g>
  <defs>
    <clipPath id="clip0_375_303">
      <rect width="56.2941" height="46.7899" fill="white" transform="translate(0.269043 0.806641)"/>
    </clipPath>
  </defs>
</svg>