<svg xmlns="http://www.w3.org/2000/svg" width="38" height="56" viewBox="0 0 38 56" fill="none">
  <g clip-path="url(#clip0_143_6473)">
    <path d="M9.4225 56C14.6237 56 18.845 51.8187 18.845 46.6667V37.3334H9.4225C4.22128 37.3334 0 41.5147 0 46.6667C0 51.8187 4.22128 56 9.4225 56Z" fill="#0ACF83"/>
    <path d="M0 28C0 22.848 4.22128 18.6666 9.4225 18.6666H18.845V37.3333H9.4225C4.22128 37.3333 0 33.152 0 28Z" fill="#A259FF"/>
    <path d="M0 9.33333C0 4.18133 4.22128 0 9.4225 0H18.845V18.6667H9.4225C4.22128 18.6667 0 14.4853 0 9.33333Z" fill="#F24E1E"/>
    <path d="M18.845 0H28.2675C33.4687 0 37.69 4.18133 37.69 9.33333C37.69 14.4853 33.4687 18.6667 28.2675 18.6667H18.845V0Z" fill="#FF7262"/>
    <path d="M37.69 28C37.69 33.152 33.4687 37.3333 28.2675 37.3333C23.0663 37.3333 18.845 33.152 18.845 28C18.845 22.848 23.0663 18.6666 28.2675 18.6666C33.4687 18.6666 37.69 22.848 37.69 28Z" fill="#1ABCFE"/>
  </g>
  <defs>
    <clipPath id="clip0_143_6473">
      <rect width="37.69" height="56" fill="white"/>
    </clipPath>
  </defs>
</svg>