<svg xmlns="http://www.w3.org/2000/svg" width="56" height="56" viewBox="0 0 56 56" fill="none">
  <g clip-path="url(#clip0_143_6466)">
    <path d="M9.91681 0.699951H46.0832C51.5668 0.699951 56 5.13314 56 10.6168V45.3831C56 50.8668 51.5668 55.3 46.0832 55.3H9.91681C4.43319 55.3 0 50.8668 0 45.3831V10.6168C0 5.13314 4.43319 0.699951 9.91681 0.699951Z" fill="#001E36"/>
    <path d="M20.0668 14.5831C19.3668 14.5831 18.6668 14.5831 17.9436 14.6068C17.22 14.6299 16.5432 14.6299 15.9132 14.6536C15.2832 14.6768 14.7 14.6768 14.14 14.6999C13.6032 14.7231 13.23 14.7231 12.8332 14.7231C12.67 14.7231 12.6 14.8163 12.6 14.9799V38.9899C12.6 39.1999 12.6932 39.2936 12.88 39.2936H17.4068C17.57 39.2699 17.6868 39.1299 17.6632 38.9668V31.4768C18.1064 31.4768 18.4332 31.4768 18.6668 31.4999C18.9 31.5231 19.2732 31.5231 19.8332 31.5231C21.7468 31.5231 23.4968 31.3131 25.0832 30.7299C26.6 30.1699 27.9068 29.1899 28.84 27.8831C29.7733 26.5765 30.24 24.9198 30.24 22.9131C30.24 21.8631 30.0536 20.8599 29.7036 19.8799C29.3327 18.8815 28.7518 17.9744 28 17.2199C27.1126 16.3579 26.0445 15.7042 24.8732 15.3063C23.5664 14.8163 21.98 14.5831 20.0668 14.5831ZM20.5874 19.1791C21.4187 19.1948 22.228 19.3401 22.9832 19.6463C23.66 19.9031 24.22 20.3699 24.6168 20.9763C24.9889 21.6039 25.1751 22.3243 25.1536 23.0536C25.1536 24.0799 24.92 24.8736 24.43 25.4568C23.9164 26.0399 23.2632 26.4836 22.5168 26.6936C21.6532 26.9736 20.7432 27.1131 19.8332 27.1131H18.5964C18.3164 27.1131 18.0136 27.0899 17.6868 27.0668V19.2268C17.85 19.2031 18.1768 19.1799 18.6436 19.2036C19.0868 19.1799 19.6232 19.1799 20.23 19.1799C20.3496 19.177 20.4687 19.1767 20.5874 19.1791ZM40.1568 20.3704C38.5 20.3704 37.1232 20.6268 36.0268 21.1868C35.0236 21.6536 34.16 22.3999 33.5768 23.3331C33.0636 24.1968 32.7832 25.1531 32.7832 26.1568C32.7632 26.9822 32.9476 27.7998 33.32 28.5368C33.7564 29.3215 34.3623 29.999 35.0936 30.5199C36.12 31.222 37.2339 31.7868 38.4068 32.1999C39.55 32.6431 40.32 32.9931 40.6936 33.2963C41.0668 33.5999 41.2536 33.9031 41.2536 34.2299C41.2536 34.6499 40.9968 35.0468 40.6236 35.2099C40.2036 35.4199 39.5736 35.5368 38.6868 35.5368C37.7536 35.5368 36.82 35.4199 35.9332 35.1868C34.9149 34.9593 33.9387 34.5736 33.04 34.0436C32.97 33.9968 32.9 33.9736 32.83 34.0204C32.76 34.0668 32.7368 34.1599 32.7368 34.2299V38.2899C32.7136 38.4768 32.83 38.6399 32.9936 38.7331C33.7503 39.0866 34.5506 39.3378 35.3736 39.4799C36.4236 39.6899 37.4732 39.7831 38.5464 39.7831C40.2264 39.7831 41.6268 39.5268 42.77 39.0368C43.82 38.6168 44.73 37.8936 45.3832 36.9599C45.9949 36.0421 46.3124 34.9596 46.2932 33.8568C46.3162 33.0236 46.1319 32.1978 45.7568 31.4536C45.3132 30.6599 44.6832 30.0068 43.9132 29.5168C42.7867 28.8094 41.5806 28.2375 40.32 27.8131C39.757 27.5801 39.2042 27.3232 38.6632 27.0431C38.36 26.8799 38.08 26.6699 37.87 26.4131C37.73 26.2263 37.6368 26.0168 37.6368 25.8068C37.6368 25.5968 37.7068 25.3636 37.8232 25.1768C37.9868 24.9436 38.2432 24.7799 38.5464 24.7099C38.99 24.5936 39.48 24.5231 39.9464 24.5463C40.8332 24.5463 41.6963 24.6631 42.56 24.8499C43.3536 25.0131 44.1 25.2699 44.8 25.6436C44.8932 25.6899 45.01 25.6899 45.22 25.6436C45.2564 25.6165 45.286 25.5813 45.3063 25.5407C45.3266 25.5001 45.337 25.4553 45.3368 25.4099V21.6068C45.3368 21.5131 45.3132 21.4199 45.29 21.3268C45.2432 21.2336 45.15 21.1399 45.0568 21.1168C44.4132 20.8537 43.7389 20.6733 43.05 20.5799C42.0919 20.4404 41.125 20.3707 40.1568 20.3704Z" fill="#31A8FF"/>
  </g>
  <defs>
    <clipPath id="clip0_143_6466">
      <rect width="56" height="56" fill="white"/>
    </clipPath>
  </defs>
</svg>