<svg xmlns="http://www.w3.org/2000/svg" width="100" height="50" viewBox="0 0 100 50" fill="none">
  <path d="M25.9198 49H4.0707C2.19024 49 1.45469 47.6984 2.43329 46.1047L29.2394 3.03002C30.0197 1.75378 31.913 1.82998 32.591 3.16336L56.4037 47.9523C56.7299 48.5936 57.3951 49 58.1242 49C66.5351 49 67.1747 49 74.8501 49C82.9923 49 90.9043 44.4475 94.9658 37.4567C99.0721 30.3834 99.021 21.2085 94.7484 14.2177C90.2903 6.92858 82.6661 2.95383 74.2424 2.28714C70.6158 2.00141 66.9701 2.12205 63.3371 2.01411C62.3457 1.98236 60.4908 2.01411 59.4994 2.01411H48.8243C47.1613 2.01411 46.285 3.29035 47.0909 4.73167C51.6194 12.8272 55.8152 21.1069 60.107 29.3294" stroke="url(#paint0_linear_133_2718)" stroke-width="4" stroke-miterlimit="10" stroke-linecap="round"/>
  <defs>
    <linearGradient id="paint0_linear_133_2718" x1="50" y1="2" x2="50" y2="49" gradientUnits="userSpaceOnUse">
      <stop stop-color="#3186FE"/>
      <stop offset="0.835" stop-color="#22CFEE"/>
    </linearGradient>
  </defs>
</svg>