<svg xmlns="http://www.w3.org/2000/svg" width="1314" height="667" viewBox="0 0 1314 667" fill="none">
  <path opacity="0.02" d="M337.938 646H48.4367C23.5207 646 13.7746 628.691 26.7411 607.498L381.922 34.6971C392.261 17.7258 417.347 18.739 426.33 36.4702L741.849 632.068C746.171 640.596 754.985 646 764.646 646C876.09 646 884.565 646 986.263 646C1094.15 646 1198.98 585.461 1252.8 492.499C1307.21 398.439 1306.53 276.432 1249.92 183.47C1190.85 86.5396 1089.83 33.6839 978.212 24.8183C930.16 21.0188 881.853 22.623 833.716 21.1876C820.58 20.7655 796.003 21.1876 782.867 21.1876H641.422C619.387 21.1876 607.777 38.1589 618.455 57.3254C678.457 164.979 734.052 275.081 790.918 384.423" stroke="white" stroke-width="41" stroke-miterlimit="10" stroke-linecap="round"/>
</svg>